<svg width="92" height="49" viewBox="0 0 92 49" fill="none" xmlns="http://www.w3.org/2000/svg">
<rect x="92" y="49" width="92" height="49" rx="5" transform="rotate(180 92 49)" fill="#030303"/>
<path d="M49.4 15C49.6 16.1 49.1 17.2 48.5 18C47.9 18.8 46.8 19.5 45.7 19.4C45.5 18.3 46 17.3 46.6 16.5C47.3 15.7 48.4 15.1 49.4 15ZM52.6 32.4C53.1 31.6 53.4 31.1 53.8 30.2C50.7 29 50.2 24.6 53.3 23C52.4 21.8 51.1 21.2 49.8 21.2C48.9 21.2 48.3 21.4 47.7 21.6C47.2 21.8 46.8 21.9 46.3 21.9C45.7 21.9 45.3 21.7 44.7 21.5C44.1 21.3 43.5 21.1 42.8 21.1C41.4 21.1 39.9 21.9 39 23.4C37.7 25.4 37.9 29.3 40 32.5C40.9 33.7 41.9 35 43.2 35C43.8 35 44.1 34.8 44.5 34.7C45 34.5 45.5 34.3 46.3 34.3C47.2 34.3 47.6 34.5 48.1 34.7C48.5 34.9 48.8 35 49.4 35C50.8 35 51.8 33.5 52.6 32.4Z" stroke="white" stroke-width="1.5" stroke-miterlimit="10" stroke-linecap="round" stroke-linejoin="round"/>
</svg>
