<svg width="92" height="60" viewBox="0 0 92 60" fill="none" xmlns="http://www.w3.org/2000/svg">
<rect x="92" y="55" width="92" height="49" rx="5" transform="rotate(180 92 55)" fill="#EAEAEA"/>
<path d="M46.3792 21.8187C48.8164 21.8187 50.4605 22.8714 51.3979 23.7511L55.0609 20.1746C52.8111 18.0835 49.8836 16.8 46.3792 16.8C41.3029 16.8 36.9188 19.7132 34.7845 23.953L38.9811 27.2123C40.0338 24.0828 42.947 21.8187 46.3792 21.8187Z" fill="#EA4335"/>
<path d="M58.8392 30.0677C58.8392 29.0005 58.7527 28.2217 58.5652 27.4141H46.3792V32.2309H53.5322C53.388 33.4278 52.6092 35.2305 50.8787 36.4419L54.9743 39.6146C57.426 37.3504 58.8392 34.0191 58.8392 30.0677Z" fill="#4285F4"/>
<path d="M38.9955 32.3462C38.7215 31.5386 38.5628 30.6733 38.5628 29.7792C38.5628 28.8851 38.7215 28.0198 38.9811 27.2123L34.7845 23.953C33.9048 25.7124 33.4 27.6881 33.4 29.7792C33.4 31.8703 33.9047 33.846 34.7844 35.6054L38.9955 32.3462Z" fill="#FBBC05"/>
<path d="M46.3792 42.7584C49.8836 42.7584 52.8255 41.6047 54.9743 39.6146L50.8787 36.4419C49.7826 37.2062 48.3116 37.7398 46.3792 37.7398C42.9469 37.7398 40.0338 35.4756 38.9955 32.3462L34.7988 35.6054C36.9332 39.8453 41.3029 42.7584 46.3792 42.7584Z" fill="#34A853"/>
</svg>
