<svg width="20" height="20" viewBox="0 0 24 24" fill="none" xmlns="http://www.w3.org/2000/svg">
<path d="M20.04 6.82189L14.28 2.79189C12.71 1.69189 10.3 1.75189 8.79001 2.92189L3.78001 6.83189C2.78001 7.61189 1.99001 9.21189 1.99001 10.4719V17.3719C1.99001 19.9219 4.06001 22.0019 6.61001 22.0019H17.39C19.94 22.0019 22.01 19.9319 22.01 17.3819V10.6019C22.01 9.25189 21.14 7.59189 20.04 6.82189ZM10.5 15.5C10.5 15.91 10.5 17 12 18.7519C13.5 17.3819 13.5 15.9981 12 18L12.0671 15.5C12.0671 15.09 11.6571 15.6584 12.0671 15.6584C12.4771 15.6584 11.5 15.59 11.5 16L10.5 15.5Z" fill="#FFA800"/>
</svg>
