<svg width="90" height="90" viewBox="0 0 90 90" fill="none" xmlns="http://www.w3.org/2000/svg">
<path d="M44.8838 7.5C24.1838 7.5 7.38376 24.3 7.38376 45C7.38376 65.7 24.1838 82.5 44.8838 82.5C65.5838 82.5 82.3838 65.7 82.3838 45C82.3838 24.3 65.6213 7.5 44.8838 7.5ZM56.1338 53.3625L45.2588 59.625C43.9496 60.3879 42.4615 60.7899 40.9463 60.7899C39.431 60.7899 37.9429 60.3879 36.6338 59.625C35.3142 58.8699 34.2193 57.7772 33.4615 56.4592C32.7036 55.1412 32.3101 53.6453 32.3213 52.125V39.5625C32.3213 36.45 33.9338 33.6375 36.6338 32.0625C39.3338 30.4875 42.5588 30.4875 45.2963 32.0625L56.1713 38.325C58.8713 39.9 60.4838 42.675 60.4838 45.825C60.4838 48.975 58.8713 51.7875 56.1338 53.3625Z" fill="#000000"/>
</svg>
