<svg width="22" height="22" viewBox="0 0 22 22" fill="none" xmlns="http://www.w3.org/2000/svg">
<path d="M15.1248 3.4372C15.1247 2.63067 15.4082 1.84978 15.9256 1.23116C16.4431 0.612545 17.1617 0.195587 17.9556 0.0532379C18.7494 -0.0891109 19.5681 0.0522152 20.2683 0.45249C20.9685 0.852765 21.5056 1.4865 21.7857 2.24282C22.0659 2.99913 22.0712 3.82987 21.8006 4.58969C21.5301 5.3495 21.0011 5.99001 20.306 6.39915C19.611 6.80828 18.7942 6.96 17.9986 6.82774C17.203 6.69549 16.4792 6.28769 15.9539 5.6757L6.71663 9.9657C6.92899 10.6387 6.92899 11.3607 6.71663 12.0337L15.9539 16.3237C16.5092 15.6779 17.2844 15.2612 18.1294 15.1545C18.9744 15.0477 19.8289 15.2584 20.5274 15.7458C21.2259 16.2331 21.7185 16.9625 21.9099 17.7924C22.1013 18.6223 21.9778 19.4937 21.5633 20.2377C21.1488 20.9818 20.4729 21.5454 19.6665 21.8195C18.8601 22.0936 17.9807 22.0585 17.1986 21.7211C16.4166 21.3838 15.7877 20.7681 15.4337 19.9934C15.0798 19.2187 15.026 18.3402 15.2829 17.5282L6.04563 13.2382C5.58835 13.7711 4.97884 14.1512 4.29908 14.3273C3.61931 14.5034 2.90192 14.4672 2.24339 14.2234C1.58487 13.9795 1.01681 13.5399 0.615627 12.9636C0.214445 12.3873 -0.000610352 11.7019 -0.000610352 10.9997C-0.000610352 10.2975 0.214445 9.61213 0.615627 9.0358C1.01681 8.45948 1.58487 8.01985 2.24339 7.77604C2.90192 7.53223 3.61931 7.49595 4.29908 7.67208C4.97884 7.84821 5.58835 8.22829 6.04563 8.7612L15.2829 4.4712C15.1777 4.13662 15.1244 3.78791 15.1248 3.4372Z" fill="black"/>
</svg>
