<svg width="24" height="24" viewBox="0 0 24 24" fill="none" xmlns="http://www.w3.org/2000/svg">
<path d="M15.3895 5.21125L16.7995 8.03125C16.9895 8.42125 17.4995 8.79125 17.9295 8.87125L20.4795 9.29125C22.1095 9.56125 22.4895 10.7413 21.3195 11.9213L19.3295 13.9113C18.9995 14.2413 18.8095 14.8913 18.9195 15.3613L19.4895 17.8213C19.9395 19.7613 18.8995 20.5213 17.1895 19.5013L14.7995 18.0813C14.3695 17.8213 13.6495 17.8213 13.2195 18.0813L10.8295 19.5013C9.11945 20.5113 8.07945 19.7613 8.52945 17.8213L9.09945 15.3613C9.18945 14.8813 8.99945 14.2313 8.66945 13.9013L6.67945 11.9113C5.50945 10.7413 5.88945 9.56125 7.51945 9.28125L10.0695 8.86125C10.4995 8.79125 11.0095 8.41125 11.1995 8.02125L12.6095 5.20125C13.3795 3.68125 14.6195 3.68125 15.3895 5.21125Z" stroke="#FFA800" stroke-width="1.5" stroke-linecap="round" stroke-linejoin="round" fill="#FFA800"/>
</svg>
